<svg version="1.0" xmlns="http://www.w3.org/2000/svg" width="500px" height="500px" viewBox="0 0 500 500" preserveAspectRatio="xMidYMid meet">
 <g fill="#e9af74">
  <path d="M25.9 339.1 l-2.9 -2.9 0 -45.2 0 -45.1 -3.5 0.7 c-4.6 0.8 -7.3 -1 -13 -8.8 -5.5 -7.6 -6 -12 -1.8 -16 1.6 -1.5 21.2 -16.4 43.8 -33.2 35.9 -26.8 41.4 -30.6 44.5 -30.6 1.9 0.1 4.4 0.6 5.6 1.3 1.1 0.7 20.5 15.1 43.1 32 42.2 31.6 44.3 33.5 42.9 39 -0.8 3.2 -9.3 13.9 -12.2 15.5 -1.4 0.7 -3.9 1.2 -5.7 1 l-3.2 -0.3 -0.2 44.5 c-0.2 30.4 -0.6 45.2 -1.4 46.6 -0.6 1.2 -2.2 2.7 -3.6 3.3 -1.7 0.8 -21.5 1.1 -65.9 1.1 l-63.6 0 -2.9 -2.9z m130.9 -3.3 c0.9 -0.9 1.2 -12.9 1.2 -47.9 l0 -46.7 -31.7 -23.8 c-17.5 -13.2 -32.1 -24.1 -32.6 -24.2 -0.7 -0.4 -43.5 31.2 -58.9 43.5 l-6.8 5.4 0 45.5 c0 29.5 0.4 46.2 1 47.5 1 1.8 2.8 1.9 63.8 1.9 47.5 0 63.1 -0.3 64 -1.2z m-122.1 -105.6 c8 -5.9 21.4 -15.8 29.7 -22 27 -20 27.5 -20.4 29.9 -19.8 1.2 0.3 18.2 12.5 37.7 27.1 19.5 14.6 35.9 26.5 36.5 26.5 1.8 0 3.4 -1.5 7.5 -7 2.2 -2.9 4 -6.2 4 -7.1 0 -1.2 -11.6 -10.5 -33.7 -27 -18.6 -13.9 -37.3 -27.9 -41.5 -31 -11.3 -8.5 -11.3 -8.5 -15.4 -5.7 -1.8 1.3 -21 15.6 -42.6 31.8 -28.9 21.7 -39.4 30.1 -39.6 31.8 -0.6 3.8 8.7 14.8 11.6 13.7 0.8 -0.3 8 -5.4 15.9 -11.3z"/>
  <path d="M83.5 323.4 c-19.6 -11.2 -34.9 -25.3 -41.2 -38.1 -3.2 -6.5 -3.9 -8.9 -4.2 -15.4 -0.5 -11.3 1.6 -16.8 9.3 -24.5 7.1 -7 12.6 -9.4 22 -9.4 8 0 12.4 1.3 18.5 5.5 2.8 1.9 5.3 3.5 5.6 3.5 0.4 0 2.3 -1.3 4.3 -3 10.8 -8.6 28.9 -7.9 40 1.5 5.1 4.4 10 14.1 10.8 21.6 1.1 10.1 -3.1 22 -11.6 32.6 -4.1 5.2 -15.9 15.3 -23.2 19.9 -6.2 3.9 -19.2 10.4 -20.8 10.4 -0.8 0 -5.1 -2.1 -9.5 -4.6z m36 -16.2 c15.7 -11.7 23.8 -25 23.9 -39.2 0.1 -6.6 -0.3 -8.2 -3 -13 -3.5 -6.2 -9.6 -11.4 -15.2 -13 -9.9 -2.7 -21.3 0.1 -27.6 6.9 -1.7 1.7 -3.6 3.1 -4.3 3.1 -0.8 0 -3 -1.5 -4.9 -3.4 -4.9 -4.8 -9.9 -6.9 -17.2 -7.4 -11.2 -0.8 -21.1 5.1 -25.8 15.3 -9.1 19.5 7.8 44.9 42.1 63.2 l6 3.2 8.8 -4.7 c4.9 -2.6 12.6 -7.5 17.2 -11z"/>
  <path d="M76.3 304 c-2.7 -1.1 -3.8 -4.7 -3 -9.7 0.8 -4.9 3.1 -7.9 8.5 -11.4 7.7 -4.9 18.3 -3.7 24.4 2.8 5.2 5.4 6.4 13.7 2.7 17.4 -1.9 1.9 -2.8 2 -6.8 1.3 -5.8 -1 -13.3 -1.1 -19.1 -0.2 -2.5 0.4 -5.5 0.3 -6.7 -0.2z m15.7 -5.5 c3.6 0 8.1 0.2 10 0.5 3.1 0.5 3.5 0.2 3.8 -2 0.6 -5.8 -6.5 -12 -13.8 -12 -7 0 -14 5.8 -14 11.6 0 2.9 0.8 3.4 4.4 2.6 1.7 -0.4 6 -0.7 9.6 -0.7z"/>
  <path d="M68.2 279.7 c-3.2 -3.4 -3.1 -10.5 0.2 -13.7 5.4 -4.9 12.6 -0.9 12.6 7.1 0 7.5 -8.1 11.6 -12.8 6.6z m7.3 -6.7 c0 -2.8 -0.4 -3.5 -2 -3.5 -1.3 0 -2.1 0.8 -2.3 2.3 -0.5 3.4 0.5 5.4 2.5 5 1.3 -0.2 1.8 -1.3 1.8 -3.8z"/>
  <path d="M106.5 279.5 c-3.2 -3.1 -3.4 -9.1 -0.4 -12.9 3.9 -4.9 11.8 -2.7 13.5 3.9 2.2 8.8 -7.1 15.1 -13.1 9z m7.5 -4.5 c1.3 -2.4 -0.3 -6 -2.6 -6 -1.9 0 -2.8 2.4 -2 5.5 0.8 3 3.1 3.3 4.6 0.5z"/>
  <path d="M87.5 273.5 c-1.9 -1.8 -2.5 -3.5 -2.5 -6.9 0 -3.7 0.5 -4.8 3.1 -7 3.4 -2.9 3.7 -3 7.4 -1.6 3.2 1.2 5.9 7.1 5 11.1 -0.8 3.5 -4.9 6.9 -8.2 6.9 -1.3 0 -3.5 -1.1 -4.8 -2.5z m7.4 -4.7 c1.4 -3.9 -1.1 -7.7 -3.6 -5.6 -2.3 1.9 -1.3 7.8 1.3 7.8 0.8 0 1.8 -1 2.3 -2.2z"/>
  <path d="M199 250 c0 -60.7 0.3 -92 1 -92 0.7 0 1 31.3 1 92 0 60.7 -0.3 92 -1 92 -0.7 0 -1 -31.3 -1 -92z"/>
  <path d="M319.8 338.4 c-0.3 -0.3 -0.4 -1.4 -0.1 -2.5 0.4 -1.3 1.4 -1.9 3.2 -1.9 4.8 0 5.1 -1.2 5.1 -18.3 l0 -15.8 3.3 0.3 3.2 0.3 0.3 16.3 0.3 16.3 -3 3 c-2.4 2.3 -3.8 2.9 -7.4 2.9 -2.4 0 -4.6 -0.3 -4.9 -0.6z"/>
  <path d="M259 327.6 c-5.3 -1.9 -7 -6.1 -7 -17.3 0 -9.6 0.4 -10.3 4.7 -9.5 2.2 0.4 2.3 0.9 2.3 9.2 0 8.4 0.1 9 2.6 10.9 1.5 1.2 3.4 2.1 4.4 2.1 1 0 2.9 -0.9 4.4 -2.1 2 -1.5 2.6 -2.9 2.6 -5.7 0 -2 0.3 -6.1 0.6 -8.9 0.6 -5 0.8 -5.3 3.5 -5.3 l2.9 0 0 13.5 0 13.5 -2.9 0 c-1.6 0 -3.1 -0.6 -3.4 -1.4 -0.5 -1.2 -1.2 -1.1 -4.4 0.5 -4.3 2.2 -5.4 2.2 -10.3 0.5z"/>
  <path d="M348.5 328.1 c-3.6 -1.6 -5.7 -4.7 -5.3 -8.2 0.4 -4.6 3.9 -6.7 11.8 -7.1 7.3 -0.4 8.7 -2.1 5 -5.8 -1.9 -1.9 -3.1 -2.1 -8.3 -1.8 -5.1 0.2 -6.2 0 -6.5 -1.4 -0.8 -4.1 14.5 -4.9 19.6 -1.1 3.4 2.5 4 4.8 4.1 16.1 l0.1 9.2 -3.5 0 c-1.9 0 -3.4 -0.3 -3.4 -0.7 0.4 -2.2 -0.3 -2.4 -2 -0.9 -2.2 2 -8.7 3 -11.6 1.7z m10.9 -5.2 c1.5 -1.2 2.6 -3 2.6 -4.5 0 -2.2 -0.4 -2.4 -4.9 -2.4 -4.7 0 -8.1 1.7 -8.1 4.1 0 1.6 3.9 4.9 5.9 4.9 1 0 3 -0.9 4.5 -2.1z"/>
  <path d="M227 312.5 l0 -15.4 -5.7 -0.3 c-5.4 -0.3 -5.8 -0.5 -5.8 -2.8 l0 -2.5 15.2 0 c8.3 0 15.4 0.3 15.8 0.7 0.4 0.3 0.4 1.6 0 2.7 -0.5 1.6 -1.6 2.1 -6.3 2.3 l-5.7 0.3 -0.3 15.3 -0.3 15.2 -3.4 0 -3.5 0 0 -15.5z"/>
  <path d="M290 314.5 l0 -13.5 2.8 0 c1.5 0 3.3 0.5 3.9 1.1 0.8 0.8 1.9 0.6 4.1 -0.5 1.7 -0.9 4.3 -1.6 5.7 -1.6 3.6 0 9.2 2.5 10.3 4.7 1.3 2.5 2.2 13.9 1.5 19.1 -0.5 3.8 -0.8 4.2 -3.4 4.2 l-2.9 0 0 -7.7 c0 -10 -0.6 -12.1 -4 -13.8 -3.6 -1.9 -8.3 -0.4 -9.9 3.1 -0.6 1.4 -1.1 6.1 -1.1 10.4 l0 8 -3.5 0 -3.5 0 0 -13.5z"/>
  <path d="M328.4 292.9 c-2.2 -2.4 -1 -5.2 2.5 -5.7 4.3 -0.7 6.5 3.2 3.5 6.2 -2.1 2.1 -3.7 2 -6 -0.5z"/>
  <path d="M270.4 267.9 c-5.9 -1.7 -6.9 -3.9 -7.2 -16.6 l-0.4 -11.4 3.4 0.3 3.3 0.3 0.5 10 c0.5 9.5 0.6 10 3.2 11.4 3.4 1.9 7.7 0.6 9.5 -2.9 0.7 -1.4 1.3 -5.9 1.3 -10.1 0 -8.1 0.7 -9.3 4.9 -8.2 2 0.5 2.1 1.2 2.1 13.9 l0 13.4 -3.5 0 c-2.4 0 -3.5 -0.5 -3.5 -1.5 0 -1.1 -0.8 -1.1 -4.2 0.5 -4.8 2.2 -5 2.2 -9.4 0.9z"/>
  <path d="M310 268.1 c-5.4 -1.7 -8.8 -4.2 -10.4 -7.5 -4.3 -9.2 1 -18.9 11.2 -20.3 8.7 -1.2 16.2 4.4 16.2 11.8 l0 4 -9.7 -0.1 c-5.4 -0.1 -10.4 -0.1 -11 -0.1 -2 0.1 -1.5 2 1.2 4.6 2.6 2.7 8.9 3.4 12.4 1.5 1.4 -0.7 2.3 -0.5 3.6 1 1.6 1.8 1.5 1.9 -1.2 3.3 -3.8 2 -9.2 2.8 -12.3 1.8z m10.7 -16.8 c0.2 -0.5 -0.6 -2.2 -1.7 -3.6 -2.9 -3.7 -8.7 -3.8 -12 -0.3 -3.9 4.2 -2.2 5.7 6.2 5.2 4 -0.2 7.4 -0.8 7.5 -1.3z"/>
  <path d="M392.1 268.1 c-4.3 -1.2 -6 -4.8 -6.4 -13.6 -0.2 -7.4 -0.4 -8 -2.5 -8.3 -2.9 -0.4 -3.2 -5.2 -0.3 -5.2 2 0 3.1 -1.8 3.1 -5.1 0 -1.4 0.7 -1.9 2.9 -1.9 2.5 0 3 0.5 3.5 3.5 0.6 3.2 1 3.5 4.1 3.5 3 0 3.5 0.3 3.5 2.4 0 2.1 -0.5 2.5 -3.7 2.8 l-3.8 0.3 -0.3 5.6 c-0.4 7.8 0.9 10.7 5 11.1 2.5 0.2 3.4 0.8 3.6 2.6 0.2 1.3 -0.2 2.2 -1 2.2 -0.7 0 -2.2 0.2 -3.3 0.4 -1.1 0.3 -3.1 0.1 -4.4 -0.3z"/>
  <path d="M413.5 268.3 c-3.1 -0.6 -6.3 -3.5 -7 -6.4 -0.5 -1.9 0 -3.4 2 -5.7 2.3 -2.7 3.4 -3.2 9.6 -3.8 3.8 -0.4 7.2 -1 7.5 -1.5 0.3 -0.5 -0.6 -2 -2 -3.4 -2.7 -2.7 -6.6 -3.2 -11 -1.5 -2.1 0.8 -2.7 0.6 -3.6 -1 -1.4 -2.6 1.4 -4.1 8.9 -4.7 7.3 -0.6 12.1 1.7 13.8 6.7 0.7 1.9 1.2 7.4 1.2 12.3 l0.1 8.7 -3.5 0 c-2.3 0 -3.5 -0.5 -3.5 -1.4 0 -1.1 -0.8 -1 -3.7 0.5 -3.7 1.9 -4.8 2 -8.8 1.2z m11.1 -6.8 c2.5 -3.9 1.2 -5.5 -4.4 -5.5 -5 0 -7.2 1.2 -7.2 4 0 2.6 2.2 4 6.2 4 2.9 0 4.1 -0.6 5.4 -2.5z"/>
  <path d="M444.6 267.7 c-4.1 -1.3 -5.1 -2.4 -3.8 -4.5 0.7 -0.9 2 -1 6.5 -0.1 4.9 1 6 0.9 8.2 -0.5 3.1 -2 2.8 -3.8 -0.6 -4.8 -1.3 -0.3 -4.6 -1.3 -7.4 -2 -3.5 -1 -5.4 -2.2 -6.5 -4 -4.3 -7.8 7.7 -14.6 18.8 -10.7 2.6 0.9 3 1.4 2.3 2.7 -0.8 1.4 -2.2 1.6 -7.3 1.4 -5.1 -0.3 -6.7 0 -7.8 1.3 -1.3 1.5 -1.2 1.9 0.7 3.5 1.2 0.9 4.4 2 7.1 2.4 14.9 2 10.5 17.2 -4.8 16.5 -0.8 0 -3.3 -0.6 -5.4 -1.2z"/>
  <path d="M219 249.5 l0 -18.5 3.5 0 3.5 0 0 6.4 c0 3.5 0.2 7 0.5 7.8 0.4 1 2.8 1.2 9.3 1.1 l8.7 -0.2 0.3 -7.6 0.3 -7.5 3.9 0 4 0 0 18.5 0 18.5 -3.4 0 c-4.1 0 -4.6 -1.1 -4.6 -9 l0 -5.8 -8.7 -0.4 c-4.9 -0.2 -9.1 -0.3 -9.5 -0.1 -0.5 0.2 -0.8 3.8 -0.8 7.9 l0 7.4 -3.5 0 -3.5 0 0 -18.5z"/>
  <path d="M335 248.5 l0 -19.5 3.5 0 3.5 0 0 19.5 0 19.5 -3.5 0 -3.5 0 0 -19.5z"/>
  <path d="M351.6 265.8 c-0.8 -3 -0.7 -14.9 0.1 -27 l0.6 -9.8 2.7 0 c2.7 0 2.7 0.1 3.3 8.3 0.9 10.5 0.9 23.6 0.1 27.6 -0.5 2.6 -1.1 3.1 -3.4 3.1 -2 0 -2.9 -0.6 -3.4 -2.2z"/>
  <path d="M368 254 l0 -14 3.5 0 3.5 0 0 14 0 14 -3.5 0 -3.5 0 0 -14z"/>
  <path d="M369.2 233.7 c-3.9 -1.8 -2.2 -6.7 2.4 -6.7 2.8 0 4.7 2.4 3.9 4.8 -0.7 2.4 -3.3 3.2 -6.3 1.9z"/>
  <path d="M358.4 218.1 c-6.2 -1.6 -6.5 -1.8 -5.3 -4.5 1.1 -2.3 1.3 -2.3 4.5 -1 4.6 1.9 10.7 1.8 13.3 -0.3 2.7 -2.3 4 -8.3 1.8 -8.3 -0.9 0 -1.9 0.5 -2.2 1 -1 1.6 -11.4 1.2 -14.5 -0.6 -8.1 -4.8 -8 -17.4 0.3 -22.4 3.9 -2.4 9.7 -2.6 13.8 -0.4 2.8 1.4 3.2 1.4 4.3 -0.1 0.7 -1 2.2 -1.5 3.7 -1.3 l2.4 0.3 0 15 c0 16.3 -0.6 18.5 -5.4 21 -3.6 1.8 -12.5 2.7 -16.7 1.6z m13.1 -19.6 c4 -3.9 2.7 -10.4 -2.6 -12.5 -5.8 -2.4 -11.9 1.4 -11.9 7.4 0 6.9 9.4 10.2 14.5 5.1z"/>
  <path d="M268.3 208.1 c-13.1 -3.3 -15.9 -20.1 -4.3 -26.2 9.3 -5 22 1.6 22 11.4 l0 2.8 -10.7 -0.2 c-9.1 -0.1 -10.8 0.1 -11.1 1.4 -0.6 3 3.4 5.7 8.6 5.7 2.6 0 5.3 -0.5 6 -1.2 0.8 -0.8 1.5 -0.8 2.7 0.2 2.1 1.7 1.9 2.7 -0.7 4.4 -3 1.9 -8.5 2.6 -12.5 1.7z m10.7 -18.1 c0 -2.5 -3.7 -5 -7.5 -5 -3.7 0 -7.5 2.5 -7.5 4.9 0 2.6 0.2 2.6 7.9 2.3 6.1 -0.3 7.1 -0.6 7.1 -2.2z"/>
  <path d="M219 189.5 l0 -18.5 7.8 0 c14.8 0.1 20.6 2.5 23 9.5 1.7 5.3 0.6 9.3 -3.6 13.2 l-3.5 3.2 3.7 5 c2 2.8 3.6 5.3 3.6 5.6 0 0.3 -1.6 0.5 -3.5 0.5 -2.9 0 -3.8 -0.6 -5.9 -3.7 -3.7 -6 -5.9 -7.5 -10.3 -7.1 l-3.8 0.3 -0.3 5.3 -0.3 5.2 -3.5 0 -3.4 0 0 -18.5z m22 0.5 c3 -3 2.7 -8.3 -0.7 -11 -2.1 -1.7 -3.8 -2 -8.2 -1.8 l-5.6 0.3 -0.3 5.9 c-0.4 8.3 -0.2 8.6 6.8 8.6 4.7 0 6.4 -0.4 8 -2z"/>
  <path d="M294 197 c0 -10.3 -0.1 -11 -2 -11 -1.5 0 -2 -0.7 -2 -2.5 0 -1.8 0.5 -2.5 1.9 -2.5 2 0 3.1 -1.8 3.1 -5.1 0 -3.4 4.4 -6.9 8.7 -6.9 2.1 0 4.4 0.4 5.1 0.8 2.1 1.4 0.2 4.1 -3 4.4 -6.2 0.6 -6.5 6.8 -0.3 6.8 3.1 0 3.5 0.3 3.5 2.5 0 2.3 -0.4 2.5 -4 2.5 l-4 0 0 11 0 11 -3.5 0 -3.5 0 0 -11z"/>
  <path d="M317.8 205.1 c-3.3 -2.9 -3.3 -2.9 -3.6 -14 l-0.4 -11.1 2.3 0 c4.1 0 4.7 1.2 5 10.3 0.4 7.9 0.7 9.1 2.8 10.8 3.1 2.5 5.4 2.4 8.8 -0.5 2.6 -2.3 2.8 -3 3.1 -11.5 0.4 -8.6 0.5 -9.1 2.6 -9.1 4.1 0 4.6 1.7 4.6 15.2 l0 12.8 -3.5 0 c-2.4 0 -3.5 -0.5 -3.5 -1.5 0 -1.9 -0.9 -1.9 -3.4 0 -1.1 0.8 -4.1 1.5 -6.8 1.5 -3.9 0 -5.4 -0.6 -8 -2.9z"/>
  <path d="M390.6 199.8 c-0.4 -4.6 -0.6 -10.9 -0.5 -14 l0.2 -5.8 3.4 0 3.3 0 0 14 0 14 -2.9 0 -2.9 0 -0.6 -8.2z"/>
  <path d="M411.3 206 c-9.2 -5.6 -8.1 -19.4 1.9 -24.6 6.5 -3.4 16.6 -0.6 20.2 5.6 2.4 4.1 2.5 11 0.2 14.5 -4.2 6.4 -15.5 8.7 -22.3 4.5z m14.1 -5.1 c4.9 -3.9 3 -13.8 -3 -15.3 -3.6 -0.9 -7.9 0.9 -9.3 4 -4.1 9.2 4.7 17.3 12.3 11.3z"/>
  <path d="M391.8 173.9 c-2.2 -1.2 -2.4 -5.7 -0.3 -6.5 0.8 -0.4 2.6 -0.3 4 0 3.1 0.8 3.5 5 0.6 6.6 -2.3 1.2 -2.2 1.2 -4.3 -0.1z"/>
 </g>
</svg>